<svg id="visual" viewBox="0 0 900 600" width="900" height="600" xmlns="http://www.w3.org/2000/svg" xmlns:xlink="http://www.w3.org/1999/xlink" version="1.1"><rect x="0" y="0" width="900" height="600" fill="#c44dbb"></rect><path d="M0 242L37.5 237.8C75 233.7 150 225.3 225 244C300 262.7 375 308.3 450 329.3C525 350.3 600 346.7 675 331.5C750 316.3 825 289.7 862.5 276.3L900 263L900 0L862.5 0C825 0 750 0 675 0C600 0 525 0 450 0C375 0 300 0 225 0C150 0 75 0 37.5 0L0 0Z" fill="#0066FF" stroke-linecap="round" stroke-linejoin="miter"></path></svg>